<?xml version="1.0" standalone="no"?>
<!DOCTYPE svg PUBLIC "-//W3C//DTD SVG 20010904//EN"
 "http://www.w3.org/TR/2001/REC-SVG-20010904/DTD/svg10.dtd">
<svg version="1.0" xmlns="http://www.w3.org/2000/svg"
 width="260.000000pt" height="260.000000pt" viewBox="0 0 260.000000 260.000000"
 preserveAspectRatio="xMidYMid meet">
<metadata>
Created by potrace 1.11, written by Peter Selinger 2001-2013
</metadata>
<g transform="translate(0.000000,260.000000) scale(0.100000,-0.100000)"
fill="#000000" stroke="none">
<path d="M957 2594 c-1 -1 -29 -4 -62 -7 -135 -13 -176 -25 -314 -88 -120 -55
-247 -149 -332 -245 -68 -78 -199 -311 -199 -355 0 -8 -7 -33 -15 -56 -25 -71
-36 -257 -21 -373 30 -248 170 -494 369 -649 74 -57 197 -126 281 -157 l61
-22 3 -321 2 -321 262 2 262 3 1 315 0 314 75 28 c85 32 100 34 100 14 0 -21
93 -158 132 -192 55 -50 132 -100 192 -125 l56 -23 0 -168 0 -168 150 0 150 0
1 48 c0 26 1 98 2 161 l2 113 58 18 c32 10 64 24 72 30 8 7 15 10 15 6 0 -11
143 89 172 120 68 73 128 184 154 287 23 85 14 257 -16 345 -27 76 -102 194
-157 243 -102 94 -223 148 -361 163 -24 2 -46 7 -50 11 -3 3 -7 45 -8 93 -1
48 -4 98 -7 112 -3 14 -8 43 -12 65 -14 72 -97 275 -117 283 -4 2 -8 8 -8 14
0 9 -53 90 -75 115 -192 214 -415 336 -655 359 -49 5 -160 10 -163 8z"/>
</g>
</svg>
